<svg width="200" height="200" viewBox="0 0 200 200" fill="none" xmlns="http://www.w3.org/2000/svg">
<rect width="200" height="200" rx="100" fill="white"/>
<path d="M47.3906 62.4833C47.8364 62.4829 47.8364 62.4829 48.2913 62.4826C48.9162 62.4837 49.5411 62.4886 50.1659 62.4969C51.1181 62.5088 52.0696 62.5072 53.0218 62.5039C53.6316 62.5067 54.2414 62.5103 54.8512 62.5147C55.1334 62.5142 55.4156 62.5138 55.7063 62.5133C57.9167 62.5527 59.9217 63.0366 61.5115 64.6721C62.3084 65.9798 62.7968 67.2111 62.7966 68.7526C62.7972 68.966 62.7978 69.1793 62.7985 69.3991C62.7975 69.7488 62.7975 69.7488 62.7966 70.1056C62.797 70.3542 62.7973 70.6028 62.7977 70.859C62.7986 71.6946 62.7978 72.5302 62.797 73.3658C62.7973 73.964 62.7978 74.5622 62.7984 75.1604C62.7995 76.4502 62.8 77.7399 62.8 79.0297C62.8002 81.0703 62.8035 83.1109 62.8074 85.1515C62.8081 85.4994 62.8087 85.8472 62.8094 86.195C62.8104 86.7222 62.8114 87.2494 62.8123 87.7765C62.8161 89.764 62.8195 91.7516 62.8226 93.7391C62.8228 93.9207 62.8231 94.1024 62.8234 94.2896C62.8278 97.2296 62.8285 100.17 62.8281 103.11C62.8278 106.131 62.8323 109.152 62.8409 112.174C62.8456 113.869 62.8481 115.564 62.8448 117.259C62.8419 118.855 62.8449 120.451 62.8522 122.047C62.8539 122.631 62.8534 123.216 62.8507 123.8C62.8312 128.25 63.2676 131.229 66.431 134.577C68.7135 136.728 71.5348 137.285 74.5695 137.228C76.6715 137.077 78.472 136.342 80.1885 135.139C80.5706 134.9 80.5706 134.9 81.0721 134.9C81.0721 134.734 81.0721 134.569 81.0721 134.398C81.2532 134.222 81.4342 134.047 81.6207 133.865C83.6487 131.894 84.6351 129.26 84.6771 126.466C84.5816 123.324 83.7551 120.683 81.5737 118.346C80.111 117.111 78.4793 116.253 76.7492 115.451C75.6253 114.858 74.7773 114.248 74.2384 113.079C74.1596 112.914 74.0807 112.748 73.9994 112.578C73.6305 111.652 73.5158 110.824 73.5044 109.828C73.4996 109.458 73.4996 109.458 73.4947 109.08C73.4928 108.814 73.491 108.548 73.4891 108.274C73.487 107.998 73.485 107.722 73.4829 107.437C73.4794 106.853 73.4768 106.268 73.4748 105.683C73.4719 105.089 73.4668 104.494 73.4594 103.899C73.4486 103.037 73.4446 102.176 73.442 101.313C73.4376 101.051 73.4333 100.789 73.4287 100.518C73.4347 98.4444 73.7854 96.4709 75.1171 94.8227C75.3082 94.6707 75.4992 94.5187 75.6961 94.3622C75.8878 94.2038 76.0795 94.0453 76.277 93.8821C77.6789 92.9164 79.446 93.1501 81.0721 93.2649C88.8851 94.7389 96.5498 100.002 101.119 106.448C101.465 106.982 101.805 107.52 102.137 108.063C102.309 108.338 102.481 108.613 102.658 108.897C107.207 116.497 108.74 125.6 106.578 134.247C105.961 136.561 105.26 138.795 104.144 140.92C103.997 141.215 103.85 141.51 103.699 141.814C99.8408 149.453 92.9717 155.437 84.8694 158.221C77.2377 160.619 69.557 160.647 62.013 157.975C61.7935 157.901 61.574 157.827 61.3479 157.751C53.0549 154.728 46.5896 147.759 42.931 139.907C42.8558 139.744 42.7806 139.582 42.7032 139.415C42.6188 139.239 42.5344 139.063 42.4474 138.881C41.8032 137.501 41.38 136.129 41.0261 134.649C40.9463 134.334 40.9463 134.334 40.8649 134.012C40.3097 131.749 40.158 129.545 40.1551 127.218C40.1538 126.959 40.1526 126.7 40.1512 126.432C40.1473 125.568 40.1452 124.703 40.143 123.838C40.1407 123.216 40.1382 122.595 40.1356 121.973C40.1284 120.111 40.1235 118.25 40.1192 116.389C40.118 115.863 40.1168 115.337 40.1155 114.811C40.1077 111.538 40.101 108.266 40.0968 104.994C40.0958 104.238 40.0948 103.482 40.0938 102.726C40.0936 102.538 40.0933 102.35 40.0931 102.157C40.0888 99.11 40.0785 96.0633 40.0657 93.0167C40.0527 89.8845 40.0454 86.7523 40.0436 83.6201C40.0425 81.8631 40.0388 80.1062 40.0286 78.3492C40.0191 76.6973 40.0173 75.0455 40.0206 73.3936C40.0206 72.7879 40.018 72.1821 40.0127 71.5764C40.0057 70.7485 40.0081 69.921 40.0128 69.0931C40.0086 68.8543 40.0043 68.6155 40 68.3695C40.0247 66.609 40.5742 65.514 41.7001 64.1704C43.3793 62.6074 45.1838 62.4471 47.3906 62.4833Z" fill="#155EA3"/>
<path d="M102.387 42.0988C102.676 42.1644 102.965 42.23 103.262 42.2977C113.871 44.9043 123.821 49.9383 132.23 56.8968C132.449 57.0772 132.449 57.0772 132.673 57.2612C134.818 59.0361 136.809 60.9224 138.75 62.9163C138.959 63.1249 139.169 63.3334 139.384 63.5483C146.617 70.8054 152.824 80.4791 155.766 90.3129C155.968 90.9753 156.18 91.6028 156.429 92.2459C156.833 93.3048 157.134 94.3784 157.417 95.4751C157.471 95.6822 157.524 95.8892 157.579 96.1025C158.418 99.3959 159.085 102.665 159.502 106.041C159.534 106.296 159.566 106.551 159.599 106.814C160.201 112.025 160.201 112.025 159.063 113.581C157.716 114.928 156.605 115.126 154.756 115.137C154.555 115.138 154.353 115.139 154.146 115.141C153.72 115.143 153.294 115.145 152.868 115.146C152.219 115.148 151.57 115.156 150.921 115.164C150.507 115.166 150.092 115.167 149.678 115.168C149.388 115.173 149.388 115.173 149.093 115.177C147.711 115.172 146.641 114.942 145.615 113.931C144.644 112.414 144.522 110.961 144.393 109.192C143.384 98.4683 139.596 88.4092 133.233 79.7209C133.129 79.5772 133.024 79.4335 132.917 79.2854C131.331 77.1149 129.575 75.1383 127.716 73.1997C127.491 72.9618 127.267 72.7238 127.035 72.4786C125.431 70.8205 123.713 69.4027 121.879 68.0137C121.472 67.7015 121.073 67.3794 120.675 67.0567C112.021 60.1105 100.787 56.188 89.7875 55.4548C88.0061 55.3129 86.8842 55.1575 85.5854 53.887C84.8504 52.7038 84.7219 51.685 84.7331 50.3218C84.7324 50.1276 84.7317 49.9335 84.7309 49.7335C84.7304 49.3248 84.7318 48.9161 84.735 48.5073C84.739 47.8859 84.735 47.2648 84.7302 46.6433C84.7307 46.2444 84.7317 45.8455 84.7331 45.4466C84.7316 45.2628 84.7301 45.0791 84.7285 44.8898C84.7457 43.618 84.995 42.7288 85.5854 41.5972C89.1361 38.2234 98.1278 41.0864 102.387 42.0988Z" fill="#155EA3"/>
<path d="M94.5665 63.2927C94.7354 63.3259 94.9043 63.359 95.0783 63.3932C98.2942 64.031 101.356 64.9402 104.394 66.1771C104.722 66.3105 104.722 66.3105 105.056 66.4466C111.378 69.0663 116.942 72.7969 121.821 77.5944C122.144 77.911 122.47 78.2233 122.798 78.5346C130.665 86.1245 136.605 98.0727 137.246 109.066C137.262 109.33 137.278 109.593 137.295 109.865C137.353 111.587 137.343 112.721 136.243 114.083C134.985 115.128 134.06 115.232 132.496 115.21C132.284 115.211 132.072 115.211 131.853 115.211C131.407 115.211 130.961 115.208 130.515 115.203C129.833 115.196 129.152 115.198 128.471 115.201C128.036 115.199 127.601 115.197 127.167 115.195C126.964 115.195 126.761 115.196 126.552 115.197C125.188 115.174 124.315 114.941 123.316 113.948C122.481 112.889 122.18 112.312 122.05 110.971C121.31 103.436 118.171 95.8383 112.939 90.3042C112.459 89.7967 112.017 89.2729 111.572 88.7347C110.483 87.4905 109.215 86.491 107.905 85.4898C107.674 85.312 107.443 85.1341 107.205 84.9509C101.631 80.8762 95.483 78.7475 88.6815 77.8189C87.3938 77.6301 86.4835 77.4803 85.5855 76.4605C84.8997 75.1244 84.716 74.0643 84.7156 72.5738C84.7137 72.3751 84.7118 72.1764 84.7098 71.9716C84.7071 71.5536 84.7064 71.1356 84.7075 70.7177C84.7078 70.0828 84.6973 69.4488 84.6862 68.8141C84.658 65.0111 84.658 65.0111 86.087 63.4181C88.5151 61.8323 91.9152 62.7668 94.5665 63.2927Z" fill="#155EA3"/>
</svg>
