<svg width="200" height="200" viewBox="0 0 200 200" fill="none" xmlns="http://www.w3.org/2000/svg">
<rect width="200" height="200" rx="100" fill="#E2E4D6"/>
<path d="M78.5291 153C75.639 153 73.1648 151.972 71.1066 149.916C69.0485 147.859 68.0194 145.387 68.0194 142.5C68.0194 139.612 69.0485 137.141 71.1066 135.084C73.1648 133.028 75.639 132 78.5291 132C81.4193 132 83.8935 133.028 85.9516 135.084C88.0098 137.141 89.0388 139.612 89.0388 142.5C89.0388 145.387 88.0098 147.859 85.9516 149.916C83.8935 151.972 81.4193 153 78.5291 153ZM131.078 153C128.188 153 125.713 151.972 123.655 149.916C121.597 147.859 120.568 145.387 120.568 142.5C120.568 139.612 121.597 137.141 123.655 135.084C125.713 133.028 128.188 132 131.078 132C133.968 132 136.442 133.028 138.5 135.084C140.558 137.141 141.587 139.612 141.587 142.5C141.587 145.387 140.558 147.859 138.5 149.916C136.442 151.972 133.968 153 131.078 153ZM74.0625 69L86.6742 95.25H123.458L137.909 69H74.0625ZM69.0704 58.5H146.58C148.594 58.5 150.127 59.3969 151.178 61.1906C152.228 62.9844 152.272 64.8 151.309 66.6375L132.654 100.237C131.691 101.987 130.399 103.344 128.779 104.306C127.158 105.269 125.385 105.75 123.458 105.75H84.3095L78.5291 116.25H141.587V126.75H78.5291C74.588 126.75 71.6102 125.022 69.5959 121.566C67.5815 118.109 67.4939 114.675 69.3331 111.262L76.4272 98.4L57.5097 58.5H47V48H64.0783L69.0704 58.5Z" fill="#155EA3"/>
</svg>
