<svg width="200" height="200" viewBox="0 0 200 200" fill="none" xmlns="http://www.w3.org/2000/svg">
<rect width="200" height="200" rx="100" fill="white"/>
<path fill-rule="evenodd" clip-rule="evenodd" d="M125.495 111.607C118.823 114.696 111.622 116.601 104.09 117.095C102.791 117.18 101.482 117.223 100.164 117.223C98.8464 117.223 97.5376 117.18 96.2386 117.095C88.7046 116.601 81.5014 114.695 74.8284 111.605C60.8246 105.12 49.1558 93.4201 41.6641 78.6114C53.3412 55.5295 75.1666 40 100.164 40C125.162 40 146.987 55.5295 158.664 78.6114C151.172 93.4218 139.501 105.123 125.495 111.607Z" fill="#155EA3"/>
<path d="M74.8279 117.616C73.2146 116.869 71.6324 116.053 70.0839 115.17C65.0514 119.224 60.7972 124.273 57.5938 130.033C63.0387 139.823 71.5197 147.558 81.6976 151.846C86.5476 153.889 91.7828 155.149 97.2585 155.475H102.965C108.439 155.149 118.061 161.35 104.089 177C114.269 172.713 137.184 139.824 142.629 130.033C139.435 124.289 135.196 119.253 130.182 115.205C128.652 116.075 127.088 116.88 125.495 117.618C118.823 120.707 111.621 122.612 104.089 123.106C102.79 123.191 101.481 123.234 100.164 123.234C98.8459 123.234 97.5371 123.191 96.2381 123.106C88.7041 122.612 81.5009 120.706 74.8279 117.616Z" fill="#155EA3"/>
<rect x="71.9551" y="68.7344" width="56.5409" height="23.0899" rx="11.5449" fill="white"/>
<ellipse cx="115.817" cy="80.1511" rx="3.70208" ry="4.23314" fill="#155EA3"/>
<ellipse cx="100.111" cy="137.106" rx="3.70209" ry="4.23314" fill="white"/>
<ellipse cx="85.3056" cy="80.1511" rx="3.70208" ry="4.23314" fill="#155EA3"/>
<ellipse cx="85.3056" cy="137.106" rx="3.70208" ry="4.23314" fill="white"/>
<ellipse cx="114.922" cy="137.106" rx="3.70209" ry="4.23314" fill="white"/>
</svg>
