<svg width="200" height="200" viewBox="0 0 200 200" fill="none" xmlns="http://www.w3.org/2000/svg">
<rect width="200" height="200" rx="100" fill="white"/>
<path d="M29 123V111.188C29 105.812 31.1542 101.438 35.4625 98.0625C39.7708 94.6875 45.45 93 52.5 93C53.7729 93 54.9969 93.0312 56.1719 93.0938C57.3469 93.1562 58.4729 93.3125 59.55 93.5625C58.1792 96.1875 57.151 98.9375 56.4656 101.812C55.7802 104.688 55.4375 107.688 55.4375 110.812V123H29ZM64.25 123V110.812C64.25 106.812 65.1068 103.156 66.8203 99.8438C68.5339 96.5312 70.9573 93.625 74.0906 91.125C77.224 88.625 80.9693 86.75 85.3266 85.5C89.6839 84.25 94.4083 83.625 99.5 83.625C104.69 83.625 109.463 84.25 113.82 85.5C118.178 86.75 121.923 88.625 125.056 91.125C128.19 93.625 130.589 96.5312 132.253 99.8438C133.918 103.156 134.75 106.812 134.75 110.812V123H64.25ZM143.562 123V110.812C143.562 107.562 143.244 104.5 142.608 101.625C141.971 98.75 141.017 96.0625 139.744 93.5625C140.821 93.3125 141.922 93.1562 143.048 93.0938C144.174 93.0312 145.325 93 146.5 93C153.55 93 159.229 94.6562 163.537 97.9688C167.846 101.281 170 105.688 170 111.188V123H143.562ZM76.7344 108H122.412C121.433 105.5 118.716 103.312 114.261 101.438C109.806 99.5625 104.885 98.625 99.5 98.625C94.1146 98.625 89.1943 99.5625 84.7391 101.438C80.2839 103.312 77.6156 105.5 76.7344 108ZM52.5 85.5C49.2687 85.5 46.5026 84.0312 44.2016 81.0938C41.9005 78.1562 40.75 74.625 40.75 70.5C40.75 66.25 41.9005 62.6875 44.2016 59.8125C46.5026 56.9375 49.2687 55.5 52.5 55.5C55.8292 55.5 58.6198 56.9375 60.8719 59.8125C63.124 62.6875 64.25 66.25 64.25 70.5C64.25 74.625 63.124 78.1562 60.8719 81.0938C58.6198 84.0312 55.8292 85.5 52.5 85.5ZM146.5 85.5C143.269 85.5 140.503 84.0312 138.202 81.0938C135.901 78.1562 134.75 74.625 134.75 70.5C134.75 66.25 135.901 62.6875 138.202 59.8125C140.503 56.9375 143.269 55.5 146.5 55.5C149.829 55.5 152.62 56.9375 154.872 59.8125C157.124 62.6875 158.25 66.25 158.25 70.5C158.25 74.625 157.124 78.1562 154.872 81.0938C152.62 84.0312 149.829 85.5 146.5 85.5ZM99.5 78C94.6042 78 90.4427 75.8125 87.0156 71.4375C83.5885 67.0625 81.875 61.75 81.875 55.5C81.875 49.125 83.5885 43.7812 87.0156 39.4688C90.4427 35.1562 94.6042 33 99.5 33C104.494 33 108.68 35.1562 112.058 39.4688C115.436 43.7812 117.125 49.125 117.125 55.5C117.125 61.75 115.436 67.0625 112.058 71.4375C108.68 75.8125 104.494 78 99.5 78ZM99.5 63C101.165 63 102.56 62.2812 103.686 60.8438C104.812 59.4062 105.375 57.625 105.375 55.5C105.375 53.375 104.812 51.5938 103.686 50.1562C102.56 48.7188 101.165 48 99.5 48C97.8354 48 96.4401 48.7188 95.3141 50.1562C94.188 51.5938 93.625 53.375 93.625 55.5C93.625 57.625 94.188 59.4062 95.3141 60.8438C96.4401 62.2812 97.8354 63 99.5 63Z" fill="#155EA3"/>
<path d="M37 120C62.6552 186.751 142.828 181.188 161 120" stroke="#155EA3" stroke-width="11"/>
</svg>
