<svg width="200" height="200" viewBox="0 0 200 200" fill="none" xmlns="http://www.w3.org/2000/svg">
<rect width="200" height="200" rx="100" fill="#E2E4D6"/>
<path d="M99.5 153C97.1789 153 94.8026 152.211 92.8132 150.571C92.5921 150.389 66.3974 127.13 55.5658 109.579C51.9737 103.749 47 95.6721 47 83.9514C47 64.1538 61.3132 48 78.9421 48C86.5684 48 93.8079 54.8016 99.5 60.2065C105.204 54.7647 112.504 48.0023 120.058 48C137.687 48 152 64.1538 152 83.9514C152 95.6721 147.026 103.749 143.379 109.64C132.603 127.13 106.353 150.449 106.132 150.632C104.142 152.211 101.821 153 99.5 153ZM78.9421 60.2065C67.4474 60.2065 58.0526 70.834 58.0526 83.9514C58.0526 91.9069 61.5895 97.7368 64.7395 102.777C73.6921 117.291 97.0132 138.789 99.3895 140.794C101.932 138.789 125.308 117.291 134.205 102.777C137.355 97.6761 140.947 91.9069 140.947 83.9514C140.947 70.834 131.553 60.1457 120.058 60.1457C113.758 60.1457 103.368 72.2604 99.3895 77.8474C101.489 80.7624 97.2895 80.7624 99.3895 77.8474C95.3553 72.2604 85.2421 60.2065 78.9421 60.2065Z" fill="#155EA3"/>
</svg>
