<svg width="200" height="200" viewBox="0 0 200 200" fill="none" xmlns="http://www.w3.org/2000/svg">
<rect width="200" height="200" rx="100" fill="white"/>
<path d="M73.5 108.5H108.5V99.75H73.5V108.5ZM73.5 95.375H126V86.625H73.5V95.375ZM73.5 82.25H126V73.5H73.5V82.25ZM56 143.5V64.75C56 62.3438 56.8568 60.2839 58.5703 58.5703C60.2839 56.8568 62.3438 56 64.75 56H134.75C137.156 56 139.216 56.8568 140.93 58.5703C142.643 60.2839 143.5 62.3438 143.5 64.75V117.25C143.5 119.656 142.643 121.716 140.93 123.43C139.216 125.143 137.156 126 134.75 126H73.5L56 143.5ZM69.7812 117.25H134.75V64.75H64.75V122.172L69.7812 117.25Z" fill="#155EA3"/>
</svg>
