<svg width="200" height="200" viewBox="0 0 200 200" fill="none" xmlns="http://www.w3.org/2000/svg">
<rect width="200" height="200" rx="100" fill="#E2E4D6"/>
<path d="M99.5 48C95.3511 48 91.9992 50.9326 91.9992 54.5625V58.2334C75.0054 60.5918 61.9963 73.4707 61.9963 89.0156V95.8652C61.9963 105.176 58.3631 114.22 51.7296 121.479L48.2371 125.314C46.8776 126.791 46.6197 128.821 47.5573 130.523C48.4949 132.226 50.4639 133.312 52.6203 133.312H146.38C148.536 133.312 150.505 132.226 151.443 130.523C152.38 128.821 152.122 126.791 150.763 125.314L147.27 121.5C140.637 114.22 137.004 105.176 137.004 95.8652V89.0156C137.004 73.4707 123.995 60.5918 107.001 58.2334V54.5625C107.001 50.9326 103.649 48 99.5 48ZM99.5 67.6875H101.375C114.83 67.6875 125.753 77.2441 125.753 89.0156V95.8652C125.753 105.688 129.011 115.266 135.058 123.469H63.9418C69.9892 115.266 73.2474 105.688 73.2474 95.8652V89.0156C73.2474 77.2441 84.1703 67.6875 97.6248 67.6875H99.5ZM114.501 139.875H84.4985C84.4985 143.361 86.069 146.704 88.8817 149.165C91.6945 151.626 95.5152 153 99.5 153C103.485 153 107.305 151.626 110.118 149.165C112.931 146.704 114.501 143.361 114.501 139.875Z" fill="#155EA3"/>
</svg>
