<svg width="200" height="200" viewBox="0 0 200 200" fill="none" xmlns="http://www.w3.org/2000/svg">
<rect width="200" height="200" rx="100" fill="#E2E4D6"/>
<path d="M100 40C66.9224 40 40 66.9 40 100C40 133.195 66.8874 160 100 160C132.582 160 160 133.595 160 100C160 66.9 133.078 40 100 40ZM99.7498 67.95C104.139 67.9632 108.344 69.7111 111.448 72.812C114.551 75.9128 116.3 80.1147 116.314 84.5C116.314 93.885 108.632 101 99.7498 101C90.7423 101 83.236 93.76 83.236 84.5C83.236 75.4 90.6422 67.95 99.7498 67.95ZM99.7498 140.8C84.6973 140.8 71.3912 131.76 66.4721 122.9C75.3756 114.232 87.3188 109.387 99.7498 109.4C112.31 109.4 124.17 114.25 133.078 122.9C123.83 135.23 112.786 140.8 99.7498 140.8Z" fill="#155EA3"/>
</svg>
