<svg width="200" height="200" viewBox="0 0 200 200" fill="none" xmlns="http://www.w3.org/2000/svg">
<rect width="200" height="200" rx="100" fill="#E2E4D6"/>
<path d="M131 59L131 134L107.5 118.5L105 116.5C105 116.5 102.057 114 100 114C98.0091 114 94.5 116.408 91.5 118.5L68 134L68 59.5L131 59ZM139.885 48H59.9819C57.7919 48 56 49.743 56 51.8556V149.144C56 151.363 57.9246 153 59.9819 153C60.6456 153 61.2428 152.842 61.9065 152.525L98.0754 125.905C98.6727 125.588 99.3364 125.43 100 125.43C100.664 125.43 101.327 125.588 101.925 125.905L138.094 152.525C138.691 152.842 139.354 153 140.018 153C142.075 153 144 151.415 144 149.144V51.8028C143.867 49.6901 142.142 48 139.885 48Z" fill="#155EA3"/>
</svg>
