<svg width="200" height="200" viewBox="0 0 200 200" fill="none" xmlns="http://www.w3.org/2000/svg">
<rect width="200" height="200" rx="100" fill="white"/>
<path d="M138.276 106.215C138.276 113.96 138.276 121.706 138.276 129.686C136.95 129.817 136.95 129.817 135.597 129.95C135.597 130.124 135.597 130.298 135.597 130.477C135.403 130.509 135.209 130.541 135.009 130.574C134.749 130.618 134.489 130.663 134.221 130.708C133.966 130.751 133.71 130.794 133.447 130.838C132.607 130.995 132.607 130.995 131.756 131.26C129.341 131.974 126.839 132.459 124.288 132.323C124.288 132.498 124.288 132.672 124.288 132.851C122.488 133.087 120.75 133.144 118.931 133.115C118.931 133.289 118.931 133.463 118.931 133.642C117.655 133.642 116.378 133.642 115.063 133.642C115.063 133.816 115.063 133.99 115.063 134.17C111.065 134.743 107.125 134.78 103.084 134.763C102.753 134.762 102.423 134.762 102.083 134.761C97.6673 134.753 93.2628 134.674 88.8545 134.45C88.6272 134.438 88.4 134.427 88.1658 134.415C84.5372 134.226 84.5372 134.226 83.8137 133.906C83.4149 133.858 83.0141 133.822 82.6128 133.792C82.3717 133.773 82.1306 133.754 81.8822 133.734C81.3801 133.695 80.8779 133.658 80.3755 133.623C78.8526 133.497 77.5242 133.231 76.0859 132.772C75.2998 132.532 74.5153 132.404 73.6951 132.291C72.2365 132.086 72.2365 132.086 71.9094 131.796C71.2606 131.691 70.609 131.6 69.9564 131.516C69.4218 131.446 69.4218 131.446 68.8764 131.375C68.6006 131.34 68.3247 131.305 68.0405 131.269C68.0405 131.095 68.0405 130.92 68.0405 130.741C67.0584 130.654 66.0763 130.567 65.0644 130.477C65.0644 130.303 65.0644 130.129 65.0644 129.95C64.8312 129.961 64.5979 129.972 64.3576 129.983C63.5764 129.95 63.5764 129.95 62.9812 129.423C62.9252 128.692 62.9063 127.987 62.9136 127.256C62.9135 127.033 62.9135 126.809 62.9134 126.578C62.9138 125.836 62.9184 125.094 62.9231 124.352C62.9242 123.838 62.925 123.325 62.9256 122.811C62.9279 121.457 62.9337 120.104 62.9403 118.75C62.9464 117.37 62.9491 115.989 62.9521 114.609C62.9585 111.899 62.9687 109.189 62.9812 106.479C63.9633 106.566 64.9454 106.653 65.9573 106.742C65.9573 106.916 65.9573 107.09 65.9573 107.27C66.184 107.283 66.4107 107.296 66.6443 107.309C68.3362 107.417 69.95 107.578 71.5979 107.935C72.4893 108.119 73.3829 108.222 74.2903 108.325C74.2903 108.499 74.2903 108.673 74.2903 108.852C74.5607 108.847 74.5607 108.847 74.8367 108.843C79.5253 108.798 79.5253 108.798 80.8377 109.38C81.5676 109.436 82.2919 109.479 83.0232 109.511C83.2389 109.522 83.4547 109.533 83.677 109.544C84.3673 109.578 85.0577 109.611 85.7482 109.643C86.6566 109.686 87.5649 109.73 88.4732 109.775C88.788 109.789 88.788 109.789 89.1092 109.803C90.5916 109.877 90.5916 109.877 91.2539 110.171C91.7765 110.202 92.3004 110.217 92.8241 110.225C93.1517 110.23 93.4794 110.235 93.817 110.241C94.172 110.245 94.5269 110.25 94.8926 110.254C95.2551 110.26 95.6176 110.265 95.991 110.271C97.1525 110.288 98.3139 110.304 99.4753 110.319C100.261 110.33 101.047 110.342 101.833 110.354C103.763 110.382 105.693 110.409 107.622 110.434C107.622 110.26 107.622 110.086 107.622 109.907C107.963 109.892 108.304 109.878 108.656 109.863C109.917 109.808 111.177 109.753 112.438 109.696C112.984 109.672 113.531 109.648 114.077 109.625C114.861 109.591 115.645 109.556 116.429 109.521C116.674 109.51 116.92 109.5 117.173 109.49C118.294 109.528 118.294 109.528 119.229 109.116C121.296 108.81 123.39 108.82 125.479 108.852C125.479 108.678 125.479 108.504 125.479 108.325C125.773 108.296 126.068 108.267 126.372 108.237C129.099 107.958 129.099 107.958 131.702 107.216C133.856 106.488 135.983 106.215 138.276 106.215Z" fill="#155EA3"/>
<path d="M63 78C64.2421 78.1572 65.456 78.3133 66.6829 78.5274C66.9369 78.571 67.1908 78.6145 67.4525 78.6593C68.0593 78.7912 68.0593 78.7912 68.3569 79.0549C68.7007 79.0984 69.0444 79.1419 69.3986 79.1868C70.4402 79.3186 70.4402 79.3186 70.7378 79.5823C71.1578 79.6419 71.5806 79.6862 72.0038 79.7235C72.385 79.7579 72.385 79.7579 72.774 79.793C73.1748 79.8274 73.1748 79.8274 73.5837 79.8625C73.9862 79.8985 73.9862 79.8985 74.3969 79.9352C75.0619 79.9944 75.7271 80.0526 76.3923 80.1098C76.3923 80.2838 76.3923 80.4579 76.3923 80.6372C76.6877 80.6342 76.9831 80.6311 77.2875 80.628C79.9825 80.609 82.6338 80.6926 85.3206 80.901C85.3206 81.075 85.3206 81.2491 85.3206 81.4284C100.47 81.5835 100.47 81.5835 115.602 81.0658C116.029 81.0408 116.029 81.0408 116.465 81.0153C119.296 80.8448 122.089 80.6037 124.894 80.2227C126.172 80.0626 127.445 79.9926 128.734 79.945C128.971 79.9348 129.208 79.9246 129.451 79.9141C130.018 79.8898 130.585 79.8677 131.152 79.8461C131.25 79.585 131.349 79.3239 131.45 79.0549C134.101 78.7938 134.101 78.7938 136.807 78.5274C136.807 78.3534 136.807 78.1793 136.807 78C137.396 78 137.985 78 138.592 78C138.599 80.0888 138.605 82.1777 138.608 84.2665C138.609 85.237 138.611 86.2074 138.615 87.1778C138.643 95.4287 138.643 95.4287 138.295 99.0979C137.326 99.55 136.496 99.7528 135.412 99.9055C134.381 99.9868 134.381 99.9868 133.533 100.416C133.037 100.427 132.541 100.428 132.045 100.416C132.045 100.591 132.045 100.765 132.045 100.944C130.952 101.254 129.911 101.227 128.771 101.208C128.771 101.382 128.771 101.556 128.771 101.735C128.41 101.77 128.048 101.805 127.675 101.841C127.203 101.888 126.732 101.935 126.26 101.982C126.021 102.005 125.783 102.028 125.537 102.052C124.38 102.079 124.38 102.079 123.414 102.526C122.62 102.564 121.83 102.537 121.033 102.526C121.033 102.7 121.033 102.874 121.033 103.054C120.248 103.054 119.462 103.054 118.653 103.054C118.653 103.228 118.653 103.402 118.653 103.581C95.4433 104.513 95.4433 104.513 88.5943 103.845C88.4961 103.758 88.3978 103.671 88.2967 103.581C87.7277 103.524 87.1567 103.483 86.5854 103.449C86.2386 103.428 85.8918 103.406 85.5345 103.383C85.1693 103.362 84.804 103.34 84.4278 103.317C83.7085 103.275 82.9892 103.231 82.2701 103.186C81.9494 103.167 81.6287 103.148 81.2982 103.128C80.5589 103.054 80.5589 103.054 80.2612 102.79C79.9175 102.746 79.5738 102.703 79.2196 102.658C78.178 102.526 78.178 102.526 77.8804 102.263C77.1362 102.164 76.3953 102.077 75.6483 101.999C73.4565 101.771 73.4565 101.771 73.1187 101.471C72.72 101.4 72.3181 101.342 71.9154 101.291C71.5463 101.242 71.5463 101.242 71.1697 101.193C70.652 101.127 70.1343 101.061 69.6165 100.995C68.2462 100.814 66.9819 100.589 65.6785 100.153C65.6785 99.9787 65.6785 99.8047 65.6785 99.6253C64.7946 99.5383 63.9107 99.4513 63 99.3616C63 92.3123 63 85.2629 63 78Z" fill="#155EA3"/>
<path d="M84.9064 34.0017C85.2706 34.0012 85.6348 34.0006 86.01 34.0001C87.0024 33.9994 87.9946 34.0023 88.987 34.0068C90.0279 34.0108 91.0688 34.0105 92.1096 34.0107C93.8558 34.0117 95.6019 34.0156 97.3481 34.0216C99.5885 34.0292 101.829 34.0319 104.069 34.0331C105.998 34.0341 107.928 34.0374 109.857 34.0411C110.476 34.0422 111.095 34.0429 111.714 34.0437C112.866 34.0452 114.019 34.0491 115.172 34.0532C115.514 34.0535 115.857 34.0538 116.21 34.0541C116.524 34.0556 116.837 34.0571 117.161 34.0587C117.433 34.0595 117.705 34.0603 117.986 34.0611C118.666 34.0936 119.25 34.1901 119.902 34.3595C119.902 34.5335 119.902 34.7076 119.902 34.8869C120.104 34.8978 120.307 34.9087 120.516 34.9199C121.742 35.2437 122.61 35.902 123.473 36.733C123.473 36.907 123.473 37.0811 123.473 37.2604C123.669 37.2604 123.866 37.2604 124.068 37.2604C124.537 39.0363 124.748 40.6999 124.731 42.5211C124.731 42.7684 124.731 43.0157 124.731 43.2706C124.731 44.0782 124.726 44.8858 124.722 45.6934C124.721 46.2572 124.72 46.8211 124.719 47.3849C124.717 48.8616 124.711 50.3383 124.704 51.8149C124.698 53.3247 124.696 54.8345 124.693 56.3443C124.686 59.3013 124.676 62.2582 124.663 65.2151C124.903 65.2097 125.142 65.2042 125.389 65.1986C126.152 65.2151 126.152 65.2151 126.449 65.4788C127.13 65.5654 127.812 65.6402 128.495 65.7096C130.451 65.9203 132.303 66.2768 134.187 66.7974C134.187 66.9715 134.187 67.1456 134.187 67.3249C134.414 67.3235 134.64 67.3221 134.874 67.3207C135.903 67.3152 136.933 67.3118 137.963 67.3084C138.319 67.3062 138.676 67.304 139.043 67.3017C139.388 67.3009 139.732 67.3 140.087 67.2991C140.403 67.2978 140.72 67.2964 141.046 67.295C141.869 67.323 142.612 67.4228 143.413 67.5886C143.413 67.7627 143.413 67.9367 143.413 68.1161C143.707 68.1161 144.002 68.1161 144.306 68.1161C144.306 68.2901 144.306 68.4642 144.306 68.6435C144.637 68.7333 144.637 68.7333 144.975 68.8248C146.355 69.4084 146.947 70.2862 147.458 71.5258C148.003 73.0311 148.001 74.4768 147.99 76.046C147.992 76.3598 147.993 76.6735 147.994 76.9968C147.997 77.8618 147.996 78.7268 147.994 79.5919C147.992 80.5271 147.995 81.4623 147.997 82.3974C148.001 84.2272 148 86.0569 147.998 87.8867C147.996 89.3742 147.995 90.8617 147.996 92.3492C147.996 92.5612 147.997 92.7732 147.997 92.9916C147.997 93.4223 147.997 93.853 147.998 94.2836C148 98.319 147.997 102.354 147.992 106.39C147.988 109.85 147.989 113.31 147.993 116.77C147.998 120.791 148 124.812 147.997 128.833C147.997 129.262 147.997 129.691 147.996 130.121C147.996 130.332 147.996 130.543 147.996 130.76C147.995 132.245 147.996 133.731 147.999 135.216C148.001 137.026 148 138.837 147.996 140.648C147.993 141.571 147.992 142.494 147.995 143.418C147.998 144.42 147.995 145.422 147.99 146.424C147.992 146.714 147.994 147.004 147.996 147.303C147.979 149.34 147.68 151.055 146.389 152.771C146.192 152.771 145.996 152.771 145.794 152.771C145.597 153.119 145.401 153.468 145.198 153.826C145.002 153.826 144.806 153.826 144.603 153.826C144.603 154 144.603 154.174 144.603 154.354C142.174 155.505 140.185 155.433 137.461 155.409C137.461 157.236 137.461 159.064 137.461 160.947C136.577 161.208 135.693 161.469 134.782 161.738C134.267 161.917 133.752 162.098 133.238 162.282C131.609 162.816 130.003 163.019 128.284 163.205C127.541 163.296 126.896 163.411 126.189 163.617C125.034 163.903 124.073 163.885 122.878 163.848C122.878 164.022 122.878 164.196 122.878 164.375C121.322 164.607 119.765 164.837 118.208 165.065C117.632 165.15 117.057 165.238 116.482 165.327C111.302 166.098 106.046 166 100.811 165.992C99.8075 165.99 98.8042 165.991 97.8009 165.993C96.8244 165.994 95.8478 165.993 94.8713 165.993C94.3415 165.993 94.3415 165.993 93.801 165.994C90.6927 165.987 87.6054 165.923 84.5609 165.331C82.0354 164.847 79.4867 164.614 76.9187 164.376C76.5933 164.345 76.2678 164.314 75.9326 164.282C75.6384 164.256 75.3442 164.229 75.041 164.201C74.3678 164.111 74.3678 164.111 74.0702 163.848C73.3773 163.751 72.6828 163.662 71.9869 163.584C71.9869 163.41 71.9869 163.236 71.9869 163.057C71.5726 163.081 71.5726 163.081 71.1499 163.106C69.8338 163.111 68.6592 162.784 67.4042 162.459C66.5575 162.247 65.716 162.106 64.8443 162.002C64.8443 161.828 64.8443 161.654 64.8443 161.474C63.9604 161.387 63.0766 161.3 62.1659 161.21C62.1659 159.296 62.1659 157.381 62.1659 155.409C60.8435 155.421 60.8435 155.421 59.5211 155.434C58.6767 155.411 57.9268 155.316 57.1065 155.145C57.1065 154.971 57.1065 154.797 57.1065 154.617C56.8487 154.612 56.5909 154.607 56.3253 154.601C54.5888 154.173 53.7615 152.882 52.847 151.568C51.8638 149.793 52.005 147.963 52.0094 146.026C52.009 145.717 52.0085 145.407 52.008 145.089C52.007 144.232 52.0074 143.376 52.0083 142.52C52.009 141.595 52.0079 140.671 52.0071 139.747C52.0058 137.937 52.0061 136.127 52.007 134.317C52.0076 132.846 52.0077 131.374 52.0074 129.903C52.0073 129.694 52.0073 129.485 52.0073 129.269C52.0072 128.843 52.0071 128.418 52.007 127.993C52.0061 124.004 52.0071 120.016 52.0087 116.027C52.01 112.605 52.0098 109.183 52.0084 105.761C52.0068 101.786 52.0062 97.8121 52.0071 93.8378C52.0072 93.414 52.0073 92.9902 52.0074 92.5664C52.0074 92.3578 52.0075 92.1493 52.0075 91.9345C52.0078 90.4652 52.0074 88.996 52.0067 87.5267C52.0058 85.7361 52.006 83.9455 52.0076 82.1549C52.0084 81.2414 52.0087 80.3278 52.0077 79.4143C52.0069 78.4241 52.0079 77.4338 52.0094 76.4436C52.0088 76.1548 52.0081 75.866 52.0074 75.5684C52.0112 74.2855 52.0373 73.0689 52.3448 71.8082C52.5412 71.8082 52.7377 71.8082 52.94 71.8082C52.9462 71.5852 52.9523 71.3622 52.9586 71.1324C53.3609 69.8255 54.1314 69.1957 55.3209 68.3798C57.4374 67.3572 59.4374 67.171 61.8125 67.1601C62.4097 67.1533 63.0068 67.1445 63.6039 67.1333C63.864 67.1317 64.124 67.1301 64.3919 67.1285C65.2312 67.0532 65.862 66.8367 66.63 66.5337C68.7165 65.8504 70.6781 65.7083 72.8798 65.7426C72.8798 65.5685 72.8798 65.3944 72.8798 65.2151C73.6654 65.2151 74.4511 65.2151 75.2606 65.2151C75.2593 64.902 75.258 64.5889 75.2566 64.2664C75.2445 61.3135 75.2356 58.3607 75.2298 55.4078C75.2267 53.8898 75.2225 52.3717 75.2157 50.8537C75.2092 49.3883 75.2057 47.9228 75.2041 46.4574C75.203 45.8988 75.2009 45.3401 75.1977 44.7815C75.1934 43.9981 75.1928 43.2147 75.193 42.4313C75.1909 42.2012 75.1888 41.9711 75.1866 41.734C75.1943 39.7001 75.5724 37.6058 77.1858 36.0469C79.51 34.1464 81.8633 33.98 84.9064 34.0017ZM56.9009 72.0428C56.2968 73.3149 56.3887 74.5498 56.398 75.9163C56.3966 76.2288 56.3952 76.5413 56.3937 76.8632C56.3908 77.7297 56.3919 78.5961 56.3946 79.4626C56.3966 80.3975 56.3935 81.3323 56.3911 82.2671C56.3871 84.098 56.388 85.929 56.3905 87.7599C56.3926 89.2478 56.3928 90.7358 56.3919 92.2237C56.3917 92.4354 56.3916 92.6471 56.3914 92.8652C56.3912 93.2953 56.3909 93.7253 56.3906 94.1554C56.388 98.1888 56.391 102.222 56.3958 106.256C56.3997 109.717 56.399 113.179 56.3949 116.64C56.3902 120.659 56.3883 124.678 56.391 128.697C56.3913 129.125 56.3916 129.554 56.3919 129.982C56.392 130.193 56.3921 130.404 56.3923 130.621C56.393 132.107 56.3917 133.594 56.3896 135.08C56.3871 136.891 56.3878 138.702 56.3926 140.513C56.3949 141.437 56.3958 142.362 56.3929 143.286C56.3905 144.287 56.3935 145.288 56.398 146.29C56.396 146.583 56.394 146.875 56.3919 147.177C56.3621 149.07 56.3621 149.07 57.4042 150.662C57.6988 150.662 57.9934 150.662 58.297 150.662C58.297 150.836 58.297 151.01 58.297 151.189C59.5737 151.189 60.8505 151.189 62.1659 151.189C62.1659 146.751 62.1659 142.312 62.1659 137.739C65.4068 138.392 65.4068 138.392 68.7132 139.058C69.0079 139.058 69.3025 139.058 69.6061 139.058C69.6061 139.232 69.6061 139.406 69.6061 139.585C69.9437 139.623 70.2813 139.661 70.6291 139.701C71.6893 139.849 71.6893 139.849 71.9869 140.113C73.3753 140.296 74.7753 140.403 76.172 140.525C76.375 140.543 76.578 140.561 76.7871 140.579C79.7565 140.842 82.6911 141.018 85.6769 140.904C85.6769 141.078 85.6769 141.252 85.6769 141.431C87.0786 141.47 88.4802 141.507 89.882 141.544C90.3567 141.556 90.8314 141.569 91.3061 141.582C96.3243 141.72 101.324 141.693 106.342 141.563C106.852 141.55 107.362 141.538 107.872 141.525C109.105 141.494 110.337 141.463 111.569 141.431C111.569 141.257 111.569 141.083 111.569 140.904C112.022 140.913 112.022 140.913 112.485 140.922C114.672 140.953 116.725 140.901 118.88 140.528C120.541 140.282 122.216 140.164 123.893 140.033C124.142 140.013 124.392 139.992 124.648 139.971C124.873 139.954 125.099 139.937 125.33 139.919C125.861 139.895 125.861 139.895 126.152 139.585C126.594 139.513 127.039 139.456 127.485 139.405C127.894 139.356 127.894 139.356 128.312 139.306C128.887 139.24 129.462 139.174 130.037 139.109C131.484 138.936 132.817 138.738 134.187 138.267C134.187 138.092 134.187 137.918 134.187 137.739C135.267 137.652 136.348 137.565 137.461 137.475C137.461 142.001 137.461 146.526 137.461 151.189C138.836 151.189 140.211 151.189 141.627 151.189C141.627 151.015 141.627 150.841 141.627 150.662C141.811 150.585 141.995 150.509 142.185 150.431C142.857 150.151 142.857 150.151 143.413 149.607C143.503 149.025 143.503 149.025 143.489 148.342C143.49 148.073 143.492 147.805 143.494 147.528C143.493 147.231 143.492 146.933 143.49 146.627C143.491 146.313 143.493 145.998 143.494 145.675C143.496 144.8 143.496 143.925 143.495 143.05C143.494 142.108 143.497 141.166 143.499 140.223C143.503 138.376 143.503 136.529 143.503 134.681C143.502 133.18 143.503 131.679 143.504 130.178C143.504 129.858 143.504 129.858 143.505 129.531C143.505 129.098 143.505 128.665 143.506 128.231C143.509 124.163 143.508 120.095 143.506 116.028C143.505 112.304 143.508 108.58 143.514 104.856C143.52 101.036 143.522 97.2152 143.521 93.3947C143.52 91.2485 143.521 89.1024 143.525 86.9562C143.529 85.129 143.529 83.3018 143.526 81.4746C143.524 80.5419 143.524 79.6092 143.527 78.6765C143.531 77.6664 143.528 76.6563 143.524 75.6462C143.526 75.35 143.529 75.0538 143.531 74.7486C143.529 74.4786 143.527 74.2085 143.524 73.9303C143.524 73.5805 143.524 73.5805 143.524 73.2235C143.36 72.3045 142.859 71.7722 142.034 71.2179C140.928 70.9025 139.842 70.9519 138.688 70.9676C138.336 70.9678 138.336 70.9678 137.976 70.9681C136.682 70.9767 135.461 71.0539 134.187 71.2807C134.187 71.4548 134.187 71.6289 134.187 71.8082C134 71.8181 133.813 71.8279 133.62 71.8381C133.365 71.8554 133.11 71.8727 132.848 71.8906C132.599 71.9059 132.351 71.9212 132.094 71.937C131.167 72.0496 131.167 72.0496 130.184 72.4438C128.387 73.0701 126.474 73.2069 124.57 73.4235C123.821 73.5115 123.072 73.6 122.323 73.6893C121.994 73.7271 121.665 73.7648 121.326 73.8038C120.475 73.9002 120.475 73.9002 119.604 74.1817C115.888 74.5512 112.133 74.4841 108.4 74.4805C107.76 74.4806 107.119 74.4809 106.479 74.4812C105.148 74.4816 103.817 74.4811 102.486 74.4798C100.776 74.4783 99.0666 74.4792 97.357 74.4808C96.0401 74.4817 94.7233 74.4814 93.4065 74.4807C92.7754 74.4805 92.1444 74.4808 91.5133 74.4814C90.6372 74.482 89.7611 74.481 88.885 74.4796C88.6232 74.4801 88.3613 74.4806 88.0915 74.4812C86.3061 74.4756 86.3061 74.4756 85.9745 74.1817C85.3917 74.1338 84.8072 74.1024 84.2226 74.0777C83.8539 74.0601 83.4853 74.0426 83.1055 74.0245C82.9089 74.0153 82.7123 74.0061 82.5097 73.9966C79.1545 73.8359 75.8786 73.5651 72.5837 72.9478C71.0571 72.6645 69.6792 72.5517 68.118 72.5994C68.118 72.4253 68.118 72.2513 68.118 72.0719C67.1359 71.9849 66.1538 71.8979 65.142 71.8082C65.142 71.6341 65.142 71.4601 65.142 71.2807C62.7488 70.3382 58.794 70.1682 56.9009 72.0428Z" fill="#155EA3"/>
<rect x="83" y="41" width="35" height="23" rx="5" fill="white"/>
</svg>
